<?xml version="1.0" encoding="UTF-8" standalone="no"?>
<!-- Created with Keyshape -->
<svg xmlns="http://www.w3.org/2000/svg" id="Layer_1" height="512" width="512" viewBox="0 0 512 512" style="white-space: preserve-spaces;">
    <path d="M308.531,69.53C308.531,98.549,285.01,122.052,255.99,122.052C226.991,122.052,203.468,98.55,203.468,69.53C203.468,40.51,226.989,16.989,255.99,16.989C285.009,16.987,308.531,40.511,308.531,69.53Z" fill="#A9603A" transform="translate(254.437,120.506) translate(-255.999,-69.5205)"/>
    <g transform="translate(256,134.06) translate(-256,-91.0595)">
        <path d="M308.531,78.612C303.514,78.612,299.449,74.546,299.449,69.53C299.449,45.565,279.953,26.069,255.989,26.069C232.037,26.069,212.55,45.565,212.55,69.53C212.55,74.545,208.485,78.612,203.468,78.612C198.451,78.612,194.386,74.546,194.386,69.53C194.386,35.55,222.021,7.906,255.988,7.906C289.968,7.906,317.611,35.55,317.611,69.53C317.613,74.545,313.547,78.612,308.531,78.612Z" fill="#460929" transform="translate(255.999,43.259) translate(-255.999,-43.259)"/>
        <path d="M195.948,51.999L195.948,173.037C195.948,178.052,200.013,182.119,205.03,182.119C210.047,182.119,214.112,178.053,214.112,173.037L214.112,51.999L195.948,51.999Z" fill="#460929" transform="translate(205.03,117.059) translate(-205.03,-117.059)"/>
        <path d="M167.616,161.856C167.163,161.856,166.705,161.822,166.245,161.753C161.285,161.002,157.874,156.374,158.625,151.415C165.028,109.107,177.763,76.122,199.912,44.464C202.788,40.355,208.449,39.353,212.56,42.23C216.67,45.106,217.67,50.768,214.795,54.878C194.332,84.124,182.547,114.737,176.583,154.134C175.904,158.63,172.031,161.856,167.616,161.856Z" fill="#460929" transform="translate(187.479,101.222) translate(-187.479,-101.222)"/>
        <path d="M141.414,103.788C139.421,103.788,137.414,103.135,135.739,101.791C131.827,98.654,131.197,92.937,134.334,89.025C161.099,55.641,188.664,33.496,223.709,17.225C228.256,15.114,233.658,17.088,235.771,21.637C237.883,26.186,235.907,31.587,231.357,33.699C198.983,48.732,173.43,69.299,148.505,100.387C146.712,102.623,144.074,103.788,141.414,103.788Z" fill="#460929" transform="translate(184.478,60.0834) translate(-184.478,-60.0834)"/>
        <path d="M344.382,161.856C339.967,161.856,336.095,158.63,335.414,154.132C329.452,114.735,317.669,84.124,297.203,54.876C294.328,50.766,295.329,45.104,299.438,42.228C303.548,39.351,309.211,40.352,312.086,44.462C334.237,76.122,346.97,109.106,353.373,151.413C354.123,156.372,350.712,161.001,345.752,161.752C345.292,161.822,344.835,161.856,344.382,161.856Z" fill="#460929" transform="translate(324.519,101.221) translate(-324.519,-101.221)"/>
        <path d="M370.586,103.788C367.926,103.788,365.288,102.624,363.495,100.387C338.57,69.299,313.017,48.732,280.643,33.699C276.094,31.587,274.118,26.187,276.229,21.637C278.342,17.088,283.745,15.113,288.291,17.225C323.335,33.497,350.9,55.641,377.666,89.025C380.803,92.937,380.174,98.654,376.261,101.791C374.585,103.134,372.578,103.788,370.586,103.788Z" fill="#460929" transform="translate(327.523,60.0831) translate(-327.523,-60.0831)"/>
        <path d="M255.99,26.069C250.973,26.069,246.908,22.003,246.908,16.987L246.908,9.082C246.908,4.067,250.973,0,255.99,0C261.007,0,265.072,4.066,265.072,9.082L265.072,16.988C265.072,22.003,261.005,26.069,255.99,26.069Z" fill="#460929" transform="translate(255.99,13.0345) translate(-255.99,-13.0345)"/>
        <path d="M235.891,30.075C232.327,30.075,228.945,27.963,227.496,24.466L224.471,17.162C222.553,12.528,224.753,7.216,229.388,5.297C234.016,3.377,239.334,5.578,241.253,10.213L244.278,17.517C246.196,22.151,243.996,27.463,239.361,29.382C238.226,29.852,237.048,30.075,235.891,30.075Z" fill="#460929" transform="translate(234.375,17.339) translate(-234.375,-17.339)"/>
        <path d="M218.847,41.463C216.523,41.463,214.198,40.577,212.426,38.804L206.835,33.213C203.287,29.666,203.287,23.916,206.834,20.369C210.382,16.822,216.132,16.822,219.677,20.369L225.268,25.96C228.816,29.507,228.816,35.257,225.269,38.804C223.496,40.575,221.171,41.463,218.847,41.463Z" fill="#460929" transform="translate(216.052,29.5859) translate(-216.052,-29.5859)"/>
        <path d="M276.107,30.075C274.948,30.075,273.771,29.852,272.635,29.381C268.001,27.462,265.8,22.148,267.72,17.516L270.746,10.212C272.665,5.578,277.98,3.379,282.611,5.298C287.245,7.217,289.446,12.531,287.526,17.163L284.5,24.467C283.053,27.964,279.672,30.075,276.107,30.075Z" fill="#460929" transform="translate(277.623,17.3397) translate(-277.623,-17.3397)"/>
        <path d="M293.152,41.463C290.828,41.463,288.503,40.577,286.731,38.804C283.183,35.257,283.183,29.507,286.73,25.96L292.319,20.369C295.867,16.822,301.617,16.822,305.162,20.369C308.71,23.916,308.71,29.666,305.163,33.213L299.574,38.804C297.8,40.575,295.476,41.463,293.152,41.463Z" fill="#460929" transform="translate(295.947,29.5859) translate(-295.947,-29.5859)"/>
        <path d="M308.531,78.612C274.551,78.612,246.908,50.968,246.908,16.988C246.908,11.973,250.973,7.906,255.99,7.906C261.007,7.906,265.072,11.972,265.072,16.988C265.072,40.953,284.568,60.449,308.532,60.449C313.549,60.449,317.614,64.515,317.614,69.531C317.613,74.545,313.547,78.612,308.531,78.612Z" fill="#460929" transform="translate(282.261,43.259) translate(-282.261,-43.259)"/>
        <path d="M297.888,51.999L297.888,173.037C297.888,178.052,301.953,182.119,306.97,182.119C311.987,182.119,316.052,178.053,316.052,173.037L316.052,51.999L297.888,51.999Z" fill="#460929" transform="translate(306.97,117.059) translate(-306.97,-117.059)"/>
    </g>
    <path d="M149.912,221.897C115.494,221.897,81.44,206.502,58.893,177.168C55.837,173.191,56.581,167.489,60.558,164.433C64.536,161.376,70.237,162.123,73.293,166.098C88.997,186.529,111.718,199.621,137.27,202.963C162.82,206.304,188.145,199.497,208.576,183.792C210.163,182.573,212.108,181.91,214.111,181.91L297.889,181.91C299.891,181.91,301.836,182.571,303.423,183.792C345.597,216.21,406.287,208.274,438.707,166.097C441.762,162.122,447.463,161.375,451.442,164.432C455.419,167.488,456.164,173.19,453.108,177.167C430.561,206.498,396.502,221.894,362.087,221.896C338.677,221.897,315.11,214.778,294.871,200.075L217.128,200.075C196.893,214.777,173.32,221.897,149.912,221.897Z" fill="#FFB13A" transform="translate(256,192.224) rotate(2.03786) translate(-256,-192.224)"/>
    <g transform="translate(255.999,407.507) translate(-255.999,-407.507)">
        <path d="M237.964,490.498L228.121,303.016L209.983,303.969L219.463,484.521L219.809,484.632L193.477,494.29C188.713,495.86,186.126,500.996,187.696,505.759C189.267,510.524,194.402,513.109,199.165,511.54L231.724,499.598C235.704,498.287,238.156,494.485,237.964,490.498Z" fill="#76DEDD" transform="translate(212.606,407.507) translate(-212.606,-407.507)"/>
        <path d="M274.034,490.498L283.877,303.016L302.015,303.969L292.535,484.521L292.189,484.632L318.521,494.29C323.285,495.86,325.872,500.996,324.302,505.759C322.732,510.524,317.596,513.109,312.833,511.54L280.274,499.598C276.294,498.287,273.842,494.485,274.034,490.498Z" fill="#76DEDD" transform="translate(299.392,407.507) translate(-299.392,-407.507)"/>
    </g>
    <path d="M286.574,152.644L225.425,152.644C214.207,152.644,205.03,161.821,205.03,173.039L205.03,291.329L306.969,291.329L306.969,173.039C306.969,161.82,297.792,152.644,286.574,152.644Z" fill="#FFB13A" transform="translate(256,241.55) translate(-256,-221.986)"/>
</svg>
